<svg width="25" height="24" viewBox="0 0 25 24" fill="none" xmlns="http://www.w3.org/2000/svg">
<g clip-path="url(#clip0_16753_24771)">
<path d="M12.5 24C19.1274 24 24.5 18.6274 24.5 12C24.5 5.37258 19.1274 0 12.5 0C5.87258 0 0.5 5.37258 0.5 12C0.5 18.6274 5.87258 24 12.5 24Z" fill="#3A559F"/>
<path d="M16.3017 10.5791L16.0604 12.6695C16.0503 12.7649 16.0056 12.8533 15.9347 12.9179C15.8639 12.9825 15.7717 13.0189 15.6758 13.02H13.494L13.4831 19.2177C13.4838 19.2912 13.4556 19.362 13.4046 19.4148C13.3536 19.4676 13.2838 19.4982 13.2104 19.5H10.9999C10.9631 19.5 10.9268 19.4926 10.8929 19.4782C10.8591 19.4639 10.8286 19.4428 10.8031 19.4163C10.7776 19.3898 10.7578 19.3584 10.7447 19.3241C10.7317 19.2897 10.7257 19.2531 10.7272 19.2164V13.02H9.09081C9.03941 13.0195 8.98862 13.0088 8.94135 12.9887C8.89407 12.9685 8.85122 12.9392 8.81526 12.9025C8.7793 12.8658 8.75092 12.8223 8.73175 12.7746C8.71258 12.7269 8.70299 12.6759 8.70353 12.6245L8.69535 10.5341C8.69463 10.4825 8.70408 10.4313 8.72315 10.3834C8.74222 10.3355 8.77055 10.2918 8.80651 10.2548C8.84247 10.2178 8.88537 10.1883 8.93274 10.1679C8.98012 10.1475 9.03105 10.1366 9.08262 10.1359H10.7272V8.11773C10.7272 5.775 12.1181 4.5 14.1581 4.5H15.8299C15.8816 4.50053 15.9327 4.51127 15.9802 4.53158C16.0277 4.5519 16.0708 4.5814 16.1069 4.6184C16.143 4.65539 16.1714 4.69915 16.1906 4.74716C16.2098 4.79517 16.2193 4.84649 16.2185 4.89818V6.65727C16.2193 6.70896 16.2098 6.76028 16.1906 6.8083C16.1714 6.85631 16.143 6.90007 16.1069 6.93706C16.0708 6.97405 16.0277 7.00355 15.9802 7.02387C15.9327 7.04419 15.8816 7.05492 15.8299 7.05545H14.8044C13.6958 7.05545 13.4804 7.60091 13.4804 8.38909V10.1359H15.9172C15.9726 10.1366 16.0272 10.149 16.0775 10.1723C16.1278 10.1957 16.1726 10.2294 16.2089 10.2712C16.2452 10.3131 16.2722 10.3622 16.2882 10.4152C16.3043 10.4683 16.3088 10.5241 16.3017 10.5791Z" fill="white"/>
</g>
<defs>
<clipPath id="clip0_16753_24771">
<rect width="24" height="24" fill="white" transform="translate(0.5)"/>
</clipPath>
</defs>
</svg>
