<svg width="224" height="48" viewBox="0 0 224 48" fill="none" xmlns="http://www.w3.org/2000/svg">
<path d="M0 27.6027H17.25L36 0.0272486H25.125C21.225 -0.201356 18.3224 0.974679 15.625 4.88506L0 27.6027Z" fill="#E4E95B"/>
<path d="M36.0007 27.8438H17.15C14.6891 44.3086 28.6733 48.1393 36.0007 47.9965V27.8438Z" fill="white"/>
<path d="M52 39.7749V8.09492H57.302V34.8029H71.294V39.7749H52Z" fill="white"/>
<path d="M83.9309 40.4569C82.1709 40.4569 80.7189 40.1636 79.5749 39.5769C78.4309 38.9903 77.5216 38.2423 76.8469 37.3329C76.1723 36.4236 75.6736 35.4556 75.3509 34.4289C75.0283 33.4023 74.8156 32.4343 74.7129 31.5249C74.6249 30.6009 74.5809 29.8529 74.5809 29.2809V16.0149H79.9489V27.4549C79.9489 28.1883 80.0003 29.0169 80.1029 29.9409C80.2056 30.8503 80.4403 31.7303 80.8069 32.5809C81.1883 33.4169 81.7456 34.1063 82.4789 34.6489C83.2269 35.1916 84.2316 35.4629 85.4929 35.4629C86.1676 35.4629 86.8349 35.3529 87.4949 35.1329C88.1549 34.9129 88.7489 34.5389 89.2769 34.0109C89.8196 33.4683 90.2523 32.7276 90.5749 31.7889C90.8976 30.8503 91.0589 29.6623 91.0589 28.2249L94.2049 29.5669C94.2049 31.5909 93.8089 33.4243 93.0169 35.0669C92.2396 36.7096 91.0883 38.0223 89.5629 39.0049C88.0376 39.9729 86.1603 40.4569 83.9309 40.4569ZM91.6969 39.7749V32.4049H91.0589V16.0149H96.3829V39.7749H91.6969Z" fill="white"/>
<path d="M131.098 39.7749V25.3429C131.098 23.7149 130.695 22.4463 129.888 21.5369C129.081 20.6129 127.989 20.1509 126.61 20.1509C125.759 20.1509 124.997 20.3489 124.322 20.7449C123.647 21.1263 123.112 21.6983 122.716 22.4609C122.32 23.2089 122.122 24.1036 122.122 25.1449L119.768 23.7589C119.753 22.1163 120.12 20.6716 120.868 19.4249C121.631 18.1636 122.657 17.1809 123.948 16.4769C125.239 15.7729 126.676 15.4209 128.26 15.4209C130.885 15.4209 132.895 16.2129 134.288 17.7969C135.696 19.3663 136.4 21.4343 136.4 24.0009V39.7749H131.098ZM102.52 39.7749V16.0149H107.206V23.3849H107.866V39.7749H102.52ZM116.842 39.7749V25.4089C116.842 23.7516 116.439 22.4609 115.632 21.5369C114.825 20.6129 113.725 20.1509 112.332 20.1509C110.983 20.1509 109.897 20.6129 109.076 21.5369C108.269 22.4609 107.866 23.6636 107.866 25.1449L105.49 23.5609C105.49 22.0209 105.871 20.6349 106.634 19.4029C107.397 18.1709 108.423 17.2029 109.714 16.4989C111.019 15.7803 112.479 15.4209 114.092 15.4209C115.867 15.4209 117.348 15.8023 118.536 16.5649C119.739 17.3129 120.633 18.3396 121.22 19.6449C121.821 20.9356 122.122 22.3949 122.122 24.0229V39.7749H116.842Z" fill="white"/>
<path d="M142.578 12.4069V7.54492H147.88V12.4069H142.578ZM142.578 39.7749V16.0149H147.88V39.7749H142.578Z" fill="white"/>
<path d="M170.904 39.7749V28.3349C170.904 27.5869 170.853 26.7583 170.75 25.8489C170.647 24.9396 170.405 24.0669 170.024 23.2309C169.657 22.3803 169.1 21.6836 168.352 21.1409C167.619 20.5983 166.621 20.3269 165.36 20.3269C164.685 20.3269 164.018 20.4369 163.358 20.6569C162.698 20.8769 162.097 21.2583 161.554 21.8009C161.026 22.3289 160.601 23.0623 160.278 24.0009C159.955 24.9249 159.794 26.1129 159.794 27.5649L156.648 26.2229C156.648 24.1989 157.037 22.3656 157.814 20.7229C158.606 19.0803 159.765 17.7749 161.29 16.8069C162.815 15.8243 164.693 15.3329 166.922 15.3329C168.682 15.3329 170.134 15.6263 171.278 16.2129C172.422 16.7996 173.331 17.5476 174.006 18.4569C174.681 19.3663 175.179 20.3343 175.502 21.3609C175.825 22.3876 176.03 23.3629 176.118 24.2869C176.221 25.1963 176.272 25.9369 176.272 26.5089V39.7749H170.904ZM154.426 39.7749V16.0149H159.156V23.3849H159.794V39.7749H154.426Z" fill="white"/>
<path d="M192.12 40.4349C189.744 40.4349 187.669 39.8996 185.894 38.8289C184.12 37.7583 182.741 36.2843 181.758 34.4069C180.79 32.5149 180.306 30.3443 180.306 27.8949C180.306 25.4016 180.805 23.2163 181.802 21.3389C182.8 19.4616 184.186 17.9949 185.96 16.9389C187.735 15.8829 189.788 15.3549 192.12 15.3549C194.511 15.3549 196.594 15.8903 198.368 16.9609C200.143 18.0316 201.522 19.5129 202.504 21.4049C203.487 23.2823 203.978 25.4456 203.978 27.8949C203.978 30.3589 203.48 32.5369 202.482 34.4289C201.5 36.3063 200.121 37.7803 198.346 38.8509C196.572 39.9069 194.496 40.4349 192.12 40.4349ZM192.12 35.4629C194.232 35.4629 195.802 34.7589 196.828 33.3509C197.855 31.9429 198.368 30.1243 198.368 27.8949C198.368 25.5923 197.848 23.7589 196.806 22.3949C195.765 21.0163 194.203 20.3269 192.12 20.3269C190.698 20.3269 189.524 20.6496 188.6 21.2949C187.691 21.9256 187.016 22.8129 186.576 23.9569C186.136 25.0863 185.916 26.3989 185.916 27.8949C185.916 30.1976 186.437 32.0383 187.478 33.4169C188.534 34.7809 190.082 35.4629 192.12 35.4629Z" fill="white"/>
<path d="M208.826 39.7749V16.0149H213.512V21.8009L212.94 21.0529C213.233 20.2609 213.622 19.5423 214.106 18.8969C214.604 18.2369 215.198 17.6943 215.888 17.2689C216.474 16.8729 217.12 16.5649 217.824 16.3449C218.542 16.1103 219.276 15.9709 220.024 15.9269C220.772 15.8683 221.498 15.8976 222.202 16.0149V20.9649C221.498 20.7596 220.684 20.6936 219.76 20.7669C218.85 20.8403 218.029 21.0969 217.296 21.5369C216.562 21.9329 215.961 22.4389 215.492 23.0549C215.037 23.6709 214.7 24.3749 214.48 25.1669C214.26 25.9443 214.15 26.7876 214.15 27.6969V39.7749H208.826Z" fill="white"/>
</svg>
