<svg width="25" height="20" viewBox="0 0 25 20" fill="none" xmlns="http://www.w3.org/2000/svg">
<path d="M24.3933 2.48401C23.6169 2.81812 22.8007 3.05078 21.9649 3.17623C22.3557 3.10924 22.9307 2.40586 23.1595 2.12116C23.5073 1.69171 23.7723 1.20146 23.9411 0.675319C23.9411 0.636242 23.9802 0.580418 23.9411 0.552506C23.9214 0.541757 23.8993 0.536124 23.8769 0.536124C23.8545 0.536124 23.8324 0.541757 23.8127 0.552506C22.9051 1.04399 21.9392 1.41911 20.9378 1.66898C20.9029 1.67965 20.8657 1.6806 20.8303 1.67175C20.7949 1.6629 20.7626 1.64457 20.7368 1.61874C20.6588 1.52592 20.5749 1.43828 20.4856 1.35637C20.0771 0.990416 19.6137 0.690898 19.1123 0.468771C18.4355 0.19109 17.7044 0.0708328 16.9743 0.117081C16.2658 0.161822 15.5742 0.351841 14.9423 0.675319C14.3201 1.01636 13.7732 1.47967 13.3346 2.03742C12.8732 2.61149 12.5401 3.2777 12.3576 3.99126C12.2072 4.66999 12.1902 5.37149 12.3074 6.05674C12.3074 6.17397 12.3074 6.19071 12.2069 6.17397C8.22667 5.58782 4.96098 4.17547 2.2926 1.14424C2.17537 1.01026 2.11396 1.01026 2.01906 1.14424C0.857928 2.90827 1.42175 5.69946 2.87317 7.07831C3.06855 7.26253 3.26952 7.44117 3.48165 7.60864C2.81618 7.5614 2.16697 7.38106 1.57247 7.07831C1.46083 7.00574 1.39942 7.04482 1.39384 7.1788C1.37801 7.36454 1.37801 7.55129 1.39384 7.73703C1.51032 8.6272 1.86113 9.47046 2.41039 10.1806C2.95965 10.8907 3.68766 11.4422 4.51997 11.7787C4.72287 11.8656 4.93428 11.9311 5.15078 11.9741C4.53472 12.0954 3.90288 12.1142 3.28068 12.0299C3.14671 12.002 3.09646 12.0745 3.14671 12.2029C3.96732 14.4359 5.7481 15.1169 7.05437 15.4965C7.23301 15.5245 7.41165 15.5245 7.61261 15.5691C7.61261 15.5691 7.61261 15.5691 7.57912 15.6026C7.19393 16.306 5.63645 16.7805 4.9219 17.0261C3.61768 17.4946 2.22713 17.6737 0.846763 17.5509C0.62905 17.5174 0.578809 17.523 0.522985 17.5509C0.467161 17.5788 0.522985 17.6402 0.584391 17.696C0.86351 17.8802 1.14263 18.0421 1.43291 18.1984C2.29709 18.6698 3.2107 19.0442 4.15712 19.3149C9.05845 20.6658 14.5738 19.6722 18.2526 16.0157C21.1443 13.1464 22.1603 9.18845 22.1603 5.22496C22.1603 5.07424 22.3445 4.98492 22.4506 4.90677C23.1822 4.33674 23.8271 3.66356 24.3653 2.90827C24.4586 2.79569 24.5063 2.65234 24.4993 2.50634C24.4993 2.42261 24.4993 2.43935 24.3933 2.48401Z" fill="#33CCFF"/>
</svg>
