<svg width="68" height="68" viewBox="0 0 68 68" fill="none" xmlns="http://www.w3.org/2000/svg">
<rect x="4" y="4" width="60" height="60" rx="30" fill="#111111"/>
<path d="M34 6.375C28.5363 6.375 23.1953 7.99518 18.6524 11.0307C14.1095 14.0661 10.5687 18.3806 8.47784 23.4284C6.38697 28.4762 5.8399 34.0306 6.90582 39.3894C7.97174 44.7481 10.6028 49.6704 14.4662 53.5338C18.3296 57.3973 23.2519 60.0283 28.6106 61.0942C33.9694 62.1601 39.5238 61.613 44.5716 59.5222C49.6194 57.4313 53.9339 53.8905 56.9694 49.3476C60.0048 44.8047 61.625 39.4637 61.625 34C61.6159 26.6762 58.7025 19.655 53.5237 14.4763C48.345 9.29755 41.3238 6.38414 34 6.375ZM43.6794 35.7691L30.9294 44.2691C30.5797 44.5008 30.1695 44.6246 29.75 44.625C29.1864 44.625 28.6459 44.4011 28.2474 44.0026C27.8489 43.6041 27.625 43.0636 27.625 42.5V25.5C27.6248 25.1152 27.729 24.7375 27.9266 24.4074C28.1242 24.0772 28.4078 23.8068 28.747 23.6252C29.0863 23.4436 29.4685 23.3575 29.8528 23.3761C30.2372 23.3947 30.6093 23.5174 30.9294 23.7309L43.6794 32.2309C43.9709 32.4249 44.2099 32.6879 44.3752 32.9965C44.5406 33.3052 44.6271 33.6499 44.6271 34C44.6271 34.3501 44.5406 34.6948 44.3752 35.0035C44.2099 35.3121 43.9709 35.5751 43.6794 35.7691Z" fill="white"/>
</svg>
