<?xml version="1.0" encoding="utf-8"?>
<svg xmlns="http://www.w3.org/2000/svg" xmlns:bx="https://boxy-svg.com" version="1.2" viewBox="0 0 912 158" width="912" height="158">
  <defs></defs>
  <style> .s0 { fill: #ffffff } </style>
  <g id="Шар 1" transform="matrix(1, 0, 0, 1, 13.091177, 196.070435)">
    <g id="&lt;Group&gt;">
      <g id="&lt;Group&gt;-2" transform="matrix(1, 0, 0, 1, -12.186829, -194.581085)">
        <g id="&lt;Group&gt;-2">
          <g id="&lt;Group&gt;-2">
            <path id="&lt;Path&gt;" class="s0" d="m537.75 129.13c0.74 0.25 2.81 0.98 2.92 1.97 3.32-0.92 6.86-2.83 8.91-5.59q0.08-1.17 0.2-2.37-0.22 0.09-0.44 0.1c-0.58 0.02-4.35-1.98-5.92-2.35-7-1.68-15.94 0.11-22.31 3.15l0.22-2.31c-0.68-1.53-7.99-1.23-9.69-0.88-3.21 0.66-12.72 11.3-15.88 13.97-7.42 6.24-15.33 10.72-25.24 11.45-1.91 0.13-6.52 0.7-6.62-1.87 0.06-0.9 0.53-1.65 1.07-2.34 1.45-1.88 13.19-11.38 15.02-11.87 2.57-0.69 6.18 1.09 5.07-3.24-0.89-3.51-7.09-5.3-10.41-3.55-8.95 4.7-16.26 16.02-26.77 20.18-14.68 5.8-20.57-1.25-6.35-10.56 5.2-3.41 11.52-5.35 17.68-5.97 3.47-0.35 9.91 1.64 9.87-3.8-0.44-1.28-4.14-1.87-5.41-1.97-16.04-1.25-35.67 6.69-45.37 19.66-16.48 2.92-33.68 7.4-50.54 5.77-16.74-1.61-23.42-8.89-9.01-21.48 17.19-15.01 44.76-20 66.87-22.54 3.72-0.43 7.41-0.27 11.11-0.83 0.48-1.9-1.82-4.32-3.5-4.8-1.39-0.4-8.81-0.55-10.74-0.47-23.68 0.93-56.71 8.12-74.71 24.28-9.04 8.11-17.61 23.19-3.77 31.37 12.43 7.35 45.29 2.77 59.65-0.18 3.41-0.7 12.3-3.84 14.93-3.63 0.9 0.07 2.12 2.39 3.59 3.31 7.29 4.57 23.24-0.3 30.58-3.93 3.94 5.47 11.08 5.4 17.28 4.71 3.15-0.35 6.53-2.2 9.09-2.48 0.62-0.07 1-0.18 0.86 0.56l-1.67 1.75 8.28-0.17c2.58-0.06 11.65-8.13 14.5-10.14 9.91-7.01 23.89-17.26 36.65-12.91z" style="paint-order: fill; fill: rgb(191, 163, 124);"></path>
          </g>
          <g id="&lt;Group&gt;-2">
            <path id="&lt;Path&gt;-2" class="s0" d="m568.01 150.22c1.35-1.08 1.38-3.5 0.46-5.45-4.21-6.24-14.95-8.02-21.36-11.87-0.94-0.57-2.23-0.98-1.98-2.24 0.02-2.15 21.35-2.54 23.87-2.02 2.22 0.46 1.79 2.31 2.74 2.56 3.57 0.95 10.82-4.26 8.66-7.23-3.69-5.07-27.34-2.04-33.41-0.68-3.11 0.7-14.01 3.1-13.35 6.84 0.5 2.8 12.49 6.84 15.71 8.7 2.56 1.49 6.7 3.08 6.04 6.26-5.66 1.44-11.56 0.28-17.19-0.83-4.05-0.79-14.86-5.17-17.62-4.02-0.54 0.23-0.94 0.75-1.38 1.34q0.01 1.89 0.48 3.79c0.31 1.23 0.81 2.03 1.55 2.72 4.74 0.33 12.84 3.16 18.25 3.69 9.14 0.9 18.93 0.7 28.08-1.21q0.22-0.18 0.45-0.35z" style="fill: rgb(191, 163, 124);"></path>
          </g>
        </g>
      </g>
      <g id="&lt;Group&gt;-2" transform="matrix(1, 0, 0, 1, -12.186829, -194.581085)">
        <path id="&lt;Compound Path&gt;" fill-rule="evenodd" class="s0" d="m11.01 36.93v17.16h-10.91v-53.9h90.28q13.24 0.01 13.24 12.81v10.61q0 13.32-13.11 13.32zm77.48-25.96h-77.48v15.18l77.65-0.13q3.92 0 3.96-4.27v-6.59q0.05-4.19-4.13-4.19z" style="fill: rgb(191, 163, 124);"></path>
        <path id="&lt;Compound Path&gt;-2" fill-rule="evenodd" class="s0" d="m229.08 54.09h-13.12l-13.03-17.29h-66.58v17.29h-10.91l0.13-53.9h90.58q12.8 0.01 12.8 12.72v11.04q0 12.85-13.06 12.85zm-15.6-43.11h-77.13v15.13h77.56q4.26 0 4.31-4.56v-6.23q0.04-4.34-4.74-4.34z" style="fill: rgb(191, 163, 124);"></path>
        <path id="&lt;Compound Path&gt;-2" class="s0" d="m354.38 54.09h-103.47v-53.98h103.47v10.78h-92.52v10.9h92.52v10.78h-92.52v10.74h92.52z" style="fill: rgb(191, 163, 124);"></path>
        <path id="&lt;Compound Path&gt;-2" class="s0" d="m479.93 40.85q0 13.24-13.19 13.24h-90.32l0.13-10.7h88.29q4.27 0 4.36-3.96v-2.63q0.08-4.27-4.44-4.27h-75.28q-13.06 0-13.06-12.1v-7.15q0-13.08 12.8-13.09l90.71-0.08v10.78h-88.42q-4.27 0-4.27 4.31v2.15q0 4.4 4.18 4.4h75.32q13.19 0 13.19 12.76z" style="fill: rgb(191, 163, 124);"></path>
        <path id="&lt;Compound Path&gt;-2" class="s0" d="m568.8 54.09h-12.94v-43.03h-53.97v-10.95h120.71v10.78h-53.8z" style="fill: rgb(191, 163, 124);"></path>
        <path id="&lt;Compound Path&gt;-2" class="s0" d="m646.71 53.91v-53.8h10.99v53.8z" style="fill: rgb(191, 163, 124);"></path>
        <path id="&lt;Compound Path&gt;-2" class="s0" d="m729.32 32.49v-10.65h53.89v19.01q0 13.24-12.97 13.24h-77.56q-13.02 0-12.98-13.24l0.13-27.68q0.04-12.93 12.72-12.93h90.66v10.78h-88.42q-4.18 0-4.18 4.64v23.26q0 4.39 4.18 4.39h73.42q4.31 0 4.27-4.34v-6.48z" style="fill: rgb(191, 163, 124);"></path>
        <path id="&lt;Compound Path&gt;-2" class="s0" d="m908.73 54.09h-103.48v-53.98h103.48v10.78h-92.52v10.9h92.52v10.78h-92.52v10.74h92.52z" style="fill: rgb(191, 163, 124);"></path>
      </g>
    </g>
  </g>
</svg>
